<?xml version="1.0" encoding="UTF-8"?> <svg xmlns="http://www.w3.org/2000/svg" width="70" height="61.2" version="1.1" viewBox="0 0 70 61.2"><defs><style> .cls-1 { fill-rule: evenodd; } .cls-1, .cls-2 { fill: #000; } </style></defs><!-- Generator: Adobe Illustrator 28.6.0, SVG Export Plug-In . SVG Version: 1.2.0 Build 709) --><g><g id="Layer_1"><g><polygon class="cls-2" points=".5 61.1 .5 54.7 5.1 54.7 5.1 56.2 2.4 56.2 2.4 57.3 4.5 57.3 4.5 58.7 2.4 58.7 2.4 61.1 .5 61.1 .5 61.1"></polygon><polygon class="cls-2" points="5.7 61.1 5.7 54.7 10.5 54.7 10.5 56.2 7.6 56.2 7.6 57.2 10 57.2 10 58.6 7.6 58.6 7.6 59.6 10.6 59.6 10.6 61.1 5.7 61.1 5.7 61.1"></polygon><polygon class="cls-2" points="11.5 61.1 11.5 54.7 13.4 54.7 13.4 59.6 15.9 59.6 15.9 61.1 11.5 61.1 11.5 61.1"></polygon><polygon class="cls-2" points="16.4 61.1 16.4 54.7 18.3 54.7 18.3 59.6 20.8 59.6 20.8 61.1 16.4 61.1 16.4 61.1"></polygon><path class="cls-1" d="M24.1,61.2c-.8,0-1.5-.3-2-.8-.7-.6-1-1.5-1-2.6,0-1.1.3-1.9,1-2.6.5-.5,1.2-.8,2-.8.8,0,1.5.3,2,.8.7.6,1,1.5,1,2.6,0,1.1-.3,1.9-1,2.6-.5.5-1.2.8-2,.8h0ZM24.1,59.7c.6,0,1-.6,1-1.8,0-1.2-.3-1.8-1-1.8-.6,0-.9.6-.9,1.8,0,1.2.3,1.8.9,1.8h0Z"></path><polygon class="cls-2" points="29 61.1 27.3 54.7 29.1 54.7 30 58.5 30.9 54.7 32.5 54.7 33.3 58.4 34.3 54.7 35.8 54.7 34.1 61.1 32.4 61.1 31.5 57.5 30.7 61.1 29 61.1 29 61.1"></polygon><path class="cls-2" d="M35.8,59.3l1.8-.3c.1.5.5.8,1.2.8.2,0,.4,0,.5-.1.1,0,.2-.2.2-.3,0-.2,0-.3-.1-.3,0,0-.2-.1-.4-.2-.2,0-.4,0-.7-.2-.7-.2-1.3-.4-1.6-.7-.4-.3-.5-.7-.5-1.2,0-.6.3-1.1.7-1.5.5-.4,1.2-.6,2-.6.6,0,1.2.1,1.6.4.4.3.7.7.9,1.2l-1.6.5c0-.2-.2-.4-.4-.5-.2-.1-.4-.2-.6-.1-.2,0-.4,0-.5.1-.1,0-.2.2-.2.3,0,.2.1.3.3.4.2,0,.5.1.9.2.3,0,.6.2.9.2.3,0,.6.2.8.4.4.3.6.8.6,1.4,0,.3,0,.5-.2.8-.1.2-.3.5-.5.6-.5.5-1.2.7-2.1.8-.8,0-1.5-.2-2-.5-.5-.3-.8-.8-1-1.4h0Z"></path><polygon class="cls-2" points="42.3 61.1 42.3 54.7 44.3 54.7 44.3 57.1 45.8 57.1 45.8 54.7 47.7 54.7 47.7 61.1 45.8 61.1 45.8 58.6 44.3 58.6 44.3 61.1 42.3 61.1 42.3 61.1"></polygon><polygon class="cls-2" points="48.8 61.1 48.8 54.7 50.8 54.7 50.8 61.1 48.8 61.1 48.8 61.1"></polygon><path class="cls-1" d="M51.9,61.1v-6.4h2.7c.4,0,.7,0,1,0,.3,0,.5.1.7.3.6.4.9,1,.9,1.7,0,.6-.2,1.1-.6,1.5-.4.4-1,.6-1.7.6h-1.1v2.3h-2ZM53.8,57.4h.5c.3,0,.5,0,.6-.2.1-.1.2-.3.2-.5,0-.4-.2-.6-.7-.6h-.6v1.3h0Z"></path><polygon class="cls-2" points=".5 51.2 .5 44.8 2.3 44.8 4.4 48.2 4.3 44.8 5.9 44.8 5.9 51.2 4.3 51.2 2 47.4 2.1 51.2 .5 51.2 .5 51.2"></polygon><polygon class="cls-2" points="7 51.2 7 44.8 11.8 44.8 11.8 46.3 8.8 46.3 8.8 47.3 11.3 47.3 11.3 48.6 8.8 48.6 8.8 49.7 11.8 49.7 11.8 51.2 7 51.2 7 51.2"></polygon><path class="cls-1" d="M12.7,51.2v-6.4h2.7c.4,0,.7,0,1,0,.3,0,.5.1.7.3.6.4.9,1,.9,1.7,0,.6-.2,1.1-.6,1.5-.4.4-1,.6-1.7.6h-1.1v2.3h-2ZM14.7,47.5h.5c.3,0,.5,0,.6-.2.1-.1.2-.3.2-.5,0-.4-.2-.6-.7-.6h-.6v1.3h0Z"></path><path class="cls-1" d="M20.4,48.6h1l-.5-1.9-.5,1.9h0ZM18.1,51.2l2-6.4h2.1l2,6.4h-2l-.4-1.3h-1.7l-.4,1.3h-1.6Z"></path><polygon class="cls-2" points="24.6 51.2 24.6 44.8 26.5 44.8 26.5 49.7 29 49.7 29 51.2 24.6 51.2 24.6 51.2"></polygon><polygon class="cls-2" points=".5 41.3 .5 34.9 2.5 34.9 2.5 41.3 .5 41.3 .5 41.3"></polygon><polygon class="cls-2" points="3.5 41.3 3.5 34.9 5.4 34.9 7.5 38.3 7.4 34.9 9 34.9 9 41.3 7.4 41.3 5.1 37.5 5.1 41.3 3.5 41.3 3.5 41.3"></polygon><polygon class="cls-2" points="12.8 36.4 12.8 41.3 10.8 41.3 10.8 36.4 9.5 36.4 9.5 34.9 14 34.9 14 36.4 12.8 36.4 12.8 36.4"></polygon><polygon class="cls-2" points="14.6 41.3 14.6 34.9 19.4 34.9 19.4 36.4 16.5 36.4 16.5 37.4 18.9 37.4 18.9 38.7 16.5 38.7 16.5 39.8 19.5 39.8 19.5 41.3 14.6 41.3 14.6 41.3"></polygon><path class="cls-1" d="M23.2,36.3h-.9v1.3h.9c.2,0,.4,0,.6-.2.1-.1.2-.3.2-.4,0-.4-.3-.6-.8-.6h0ZM20.3,41.3v-6.4h3.1c1.7,0,2.5.6,2.5,1.9,0,.4,0,.8-.3,1.1-.2.3-.5.5-.8.6l1.2,2.8h-2.1l-.9-2.4h-.7v2.4h-1.9Z"></path><polygon class="cls-2" points="26.7 41.3 26.7 34.9 28.5 34.9 30.6 38.3 30.5 34.9 32.1 34.9 32.1 41.3 30.6 41.3 28.2 37.5 28.3 41.3 26.7 41.3 26.7 41.3"></polygon><path class="cls-1" d="M34.8,38.6h1l-.5-1.9-.5,1.9h0ZM32.5,41.3l2-6.4h2.1l2,6.4h-2l-.4-1.3h-1.7l-.4,1.3h-1.6Z"></path><polygon class="cls-2" points="41.7 36.4 41.7 41.3 39.8 41.3 39.8 36.4 38.5 36.4 38.5 34.9 43 34.9 43 36.4 41.7 36.4 41.7 36.4"></polygon><polygon class="cls-2" points="43.6 41.3 43.6 34.9 45.6 34.9 45.6 41.3 43.6 41.3 43.6 41.3"></polygon><path class="cls-1" d="M49.4,41.4c-.8,0-1.5-.3-2-.8-.7-.6-1-1.5-1-2.6,0-1.1.3-1.9,1-2.6.5-.5,1.2-.8,2-.8.8,0,1.5.3,2,.8.7.6,1,1.5,1,2.6,0,1.1-.3,1.9-1,2.6-.5.5-1.2.8-2,.8h0ZM49.4,39.9c.6,0,1-.6,1-1.8,0-1.2-.3-1.8-1-1.8-.6,0-.9.6-.9,1.8,0,1.2.3,1.8.9,1.8h0Z"></path><polygon class="cls-2" points="53.2 41.3 53.2 34.9 55.1 34.9 57.1 38.3 57.1 34.9 58.7 34.9 58.7 41.3 57.1 41.3 54.8 37.5 54.8 41.3 53.2 41.3 53.2 41.3"></polygon><path class="cls-1" d="M61.4,38.6h1l-.5-1.9-.5,1.9h0ZM59.1,41.3l2-6.4h2.1l2,6.4h-2l-.4-1.3h-1.7l-.4,1.3h-1.6Z"></path><polygon class="cls-2" points="65.5 41.3 65.5 34.9 67.5 34.9 67.5 39.8 70 39.8 70 41.3 65.5 41.3 65.5 41.3"></polygon><path class="cls-2" d="M12.4,4.8c0-2.2,1.8-4,4-4s4,1.8,4,4-1.8,4-4,4-4-1.8-4-4h0Z"></path><path class="cls-2" d="M51.5,16.4c.2.5.3.7.3.7,1.8,4,4.4,8.9,8.7,13.1h-13.1s0-13.8,0-13.8h4ZM49.2,10.2c.3,1,.7,2,1,2.8h-2.9c0-.2,0-.3,0-.5,0-1.4.6-2.2,1.9-2.4h0ZM33.2,30.2h-5.4v-10.1c0-1.2.3-2.2.9-2.8.6-.7,1.3-1,2.2-1,1.6,0,2.3,1.1,2.3,3.2v10.8h0ZM39.9,30.2h-1.7s0-11.1,0-11.1c0-4.4-1.8-6.5-5.6-6.5-2.3,0-4,1.1-5.1,3.2v-2.7h-4.6v17.2h-3.8V13h-5.1v17.2H0c4.5-5.9,7.9-11,11.8-17.3,1.3-2.1,7.5-.9,11-1.7C33,8.7,41.9,0,42.8,0c2,0,4.3,4.6,5,6.1l.2.5c-3.6.1-5.4,2-5.4,5.8v.6h-2.7v3.3h2.7v13.8h-2.7Z"></path></g></g></g></svg> 